<svg id="visual" viewBox="0 0 540 960" width="540" height="960" xmlns="http://www.w3.org/2000/svg" xmlns:xlink="http://www.w3.org/1999/xlink" version="1.1"><rect x="0" y="0" width="540" height="960" fill="#001220"></rect><defs><linearGradient id="grad1_0" x1="0%" y1="0%" x2="100%" y2="100%"><stop offset="30%" stop-color="#075ea6" stop-opacity="1"></stop><stop offset="70%" stop-color="#075ea6" stop-opacity="1"></stop></linearGradient></defs><defs><linearGradient id="grad1_1" x1="0%" y1="0%" x2="100%" y2="100%"><stop offset="30%" stop-color="#075ea6" stop-opacity="1"></stop><stop offset="70%" stop-color="#001220" stop-opacity="1"></stop></linearGradient></defs><defs><linearGradient id="grad2_0" x1="0%" y1="0%" x2="100%" y2="100%"><stop offset="30%" stop-color="#075ea6" stop-opacity="1"></stop><stop offset="70%" stop-color="#075ea6" stop-opacity="1"></stop></linearGradient></defs><defs><linearGradient id="grad2_1" x1="0%" y1="0%" x2="100%" y2="100%"><stop offset="30%" stop-color="#001220" stop-opacity="1"></stop><stop offset="70%" stop-color="#075ea6" stop-opacity="1"></stop></linearGradient></defs><g transform="translate(540, 0)"><path d="M0 270C-26 244.8 -52 219.7 -87.3 210.6C-122.5 201.6 -167.2 208.8 -190.9 190.9C-214.7 173 -217.6 130.1 -227.3 94.1C-237 58.1 -253.5 29.1 -270 0L0 0Z" fill="#00375f"></path><path d="M0 135C-13 122.4 -26 109.8 -43.6 105.3C-61.3 100.8 -83.6 104.4 -95.5 95.5C-107.3 86.5 -108.8 65.1 -113.6 47.1C-118.5 29.1 -126.7 14.5 -135 0L0 0Z" fill="#075ea6"></path></g><g transform="translate(0, 960)"><path d="M0 -270C34 -255.8 68 -241.7 91.8 -221.7C115.7 -201.8 129.5 -176 157.7 -157.7C185.8 -139.3 228.3 -128.4 249.4 -103.3C270.6 -78.3 270.3 -39.1 270 0L0 0Z" fill="#00375f"></path><path d="M0 -135C17 -127.9 34 -120.8 45.9 -110.9C57.9 -100.9 64.8 -88 78.8 -78.8C92.9 -69.7 114.2 -64.2 124.7 -51.7C135.3 -39.1 135.1 -19.6 135 0L0 0Z" fill="#075ea6"></path></g></svg>